Simulation
nRows=38
nColumns=15
endheader
time  TH_x TH_y TH_z SC_y  SC_z  SC_x  AC_y  AC_z  AC_x  GH_y  GH_z  GH_yy  EL_x  PS_y
8.073123595505619  0.000000  0.000000  0.000000  -23.852614565838966  6.524454643698734  2.175162121882982  62.36943485788722  5.127957132662235  8.295572226671565  -79.3354057378337  6.3747250314762285  131.505710737897  16.765422466886392  120.000000
8.113288389513109  0.000000  0.000000  0.000000  -23.559698739931076  6.429412407493089  1.7792838792471297  62.29504222627635  4.8721535931073525  8.398999966343318  -68.30640074056683  6.104242327567652  120.07790997816377  16.279941306499722  120.000000
8.153453183520599  0.000000  0.000000  0.000000  -23.251086773207266  6.363001464405852  1.4077850532882776  62.18626485327265  4.702737667221931  8.495740170272189  -55.44400940090497  5.972982317277933  106.68731797358511  15.734614129530108  120.000000
8.19361797752809  0.000000  0.000000  0.000000  -22.93678089857917  6.339642293530428  1.0844681350994652  62.0446104745681  4.642730445028502  8.580397318012878  -41.06562111269938  6.09427076738053  91.64654437017404  15.148903897780727  120.000000
8.23378277153558  0.000000  0.000000  0.000000  -22.626522612543823  6.368970706331368  0.8299550679936117  61.87414984555555  4.70803382800034  8.651484304832032  -26.357089060975465  6.5778875655033024  76.13852356694449  14.546960060612188  120.000000
8.273947565543072  0.000000  0.000000  0.000000  -22.328539055275247  6.455821594296918  0.660707443637804  61.68181759147889  4.906842991940929  8.710874749125335  -12.862390272283447  7.486915198560225  61.707534415834566  13.953845894393568  120.000000
8.314112359550561  0.000000  0.000000  0.000000  -22.049587106126385  6.601271917567211  0.5889510889518932  61.474904813464846  5.239920789561747  8.762600415318564  -1.5933502875138637  8.822640847839924  49.370667513366016  13.391674724476042  120.000000
8.354277153558053  0.000000  0.000000  0.000000  -21.795316700939214  6.802976428775744  0.6228323257220564  61.25948993003431  5.700755889506966  8.812811681104954  7.261076562401161  10.544284217375424  39.32810154955057  12.876706375646803  120.000000
8.394441947565543  0.000000  0.000000  0.000000  -21.569943691411165  7.055091896172578  0.7662912829488879  61.04030479002514  6.275420421870791  8.87002967093846  14.012057227425347  12.594858519954778  31.286098084193345  12.418469577969645  120.000000
8.434606741573035  0.000000  0.000000  0.000000  -21.375416929900556  7.347706220624847  1.0190373193859317  60.82158854651416  6.943749217310009  8.943570912652884  19.106307079239855  14.915332968759163  24.820614388149465  12.020237020827002  120.000000
8.474771535580524  0.000000  0.000000  0.000000  -21.212067513284072  7.6695955133329194  1.3770241077557153  60.60753773132043  7.681280982843128  9.041777292383326  22.949580956238034  17.449084721593053  19.551514255380837  11.680257386440223  120.000000
8.514936329588014  0.000000  0.000000  0.000000  -21.08094459006381  8.011085755273001  1.8336476221565148  60.40053946078677  8.461015779634522  9.171486631135629  25.859667758656993  20.142612509761815  15.18695928441423  11.393620503705813  120.000000
8.555101123595506  0.000000  0.000000  0.000000  -20.983969998285872  8.363238364682344  2.380602213668469  60.20002663023901  9.255890153933368  9.336747488201341  28.072147779725466  22.94615054713232  11.515386461186013  11.153574104509982  120.000000
8.595265917602996  0.000000  0.000000  0.000000  -20.92354526570081  8.718111108661917  3.0088070442412738  60.003890942553596  10.040958681905902  9.53831765806937  29.760193127027275  25.8145765769884  8.383828468220653  10.952981484061747  120.000000
8.635430711610487  0.000000  0.000000  0.000000  -20.903021314876607  9.069420039854155  3.70922054231342  59.809428000323685  10.794637586911167  9.774010537776837  31.051274345665313  28.70791192761341  5.680110459227849  10.785637054241416  120.000000
8.675595505617977  0.000000  0.000000  0.000000  -20.926404537017856  9.412384669219948  4.472997642035551  59.613546612195286  11.49932441428035  10.038993874692627  32.038617412321464  31.591091735729808  3.321018898951791  10.646480825407153  120.000000
8.715760299625469  0.000000  0.000000  0.000000  -20.997943532026685  9.743674513206205  5.2913617166260005  59.41323181483879  12.141598310472041  10.32631067822128  32.7904075076711  34.43331449477706  1.243423700833098  10.531702875253645  120.000000
8.755925093632959  0.000000  0.000000  0.000000  -21.121311282304283  10.06097442508674  6.155180009849758  59.205904723450345  12.711969432205757  10.627484916896977  33.356714992632405  37.20732974705663  -0.6018725238830416  10.438609653203587  120.000000
8.79608988764045  0.000000  0.000000  0.000000  -21.298833351923367  10.362564017965267  7.0545013415381455  58.98988582849246  13.204454562577281  10.933179070056017  33.77484886112895  39.88868059108744  -2.254362874354847  10.365415135016205  120.000000
8.83625468164794  0.000000  0.000000  0.000000  -21.530900172908087  10.647237296980029  7.978378618176127  58.76478499335755  13.616304096183267  11.233780980643985  34.07338457533841  42.455515369433684  -3.746566112554511  10.311013276406648  120.000000
8.87641947565543  0.000000  0.000000  0.000000  -21.81553347872385  10.914272153645154  8.915174131546797  58.531603714379706  13.947898079835056  11.520208128263048  34.274936476095206  44.88868625955498  -5.105443485446122  10.274597393627086  120.000000
8.916584269662922  0.000000  0.000000  0.000000  -22.148400036152292  11.163355324367352  9.85309580216598  58.29270626559794  14.202548733984482  11.78469935503782  34.39825577064137  47.17204147533858  -6.353109386935251  10.255321001369884  120.000000
8.956749063670411  0.000000  0.000000  0.000000  -22.523090985960117  11.39431372296175  10.780844602183787  58.05136454849501  14.386145230097002  12.021593410065458  34.459446033399935  49.2927268610116  -7.506746643557191  10.251842383510631  120.000000
8.996913857677903  0.000000  0.000000  0.000000  -22.931959387468094  11.607190963624776  11.688420680689958  57.811023172098125  14.507001894504667  12.22763640424939  34.472440519834834  51.24147284895711  -8.578151914164321  10.261887868646586  120.000000
9.037078651685393  0.000000  0.000000  0.000000  -23.366972474822283  11.802317280130575  12.567828673606916  57.57470839277972  14.575569108026952  12.401891820976616  34.449168272565444  53.012719141944174  -9.573437809296204  10.281981286299988  120.000000
9.077243445692885  0.000000  0.000000  0.000000  -23.819969846255976  11.979775266693215  13.413189214524344  57.344629995598716  14.60357526573407  12.54577845480329  34.40013494360049  54.60430439074147  -10.493555049598296  10.30758946944435  120.000000
9.117408239700374  0.000000  0.000000  0.000000  -24.282669281869037  12.139190430077027  14.220365290256348  57.122284499188666  14.60295055541487  12.662741786597183  34.33508274577607  56.016666338694954  -11.335531211138482  10.33370103476411  120.000000
9.157573033707866  0.000000  0.000000  0.000000  -24.746608643817176  12.279884519861914  14.986269470937756  56.90873572107358  14.58485799157243  12.757421304381555  34.26326455090479  57.25171588985492  -12.093914042057055  10.355595068721682  120.000000
9.197737827715356  0.000000  0.000000  0.000000  -25.202889392660875  12.400982118204713  15.708051718725732  56.70511722651279  14.558795481531947  12.834697488440174  34.19368191071437  58.31147889296964  -12.7625509229875  10.36957258376448  120.000000
9.237902621722846  0.000000  0.000000  0.000000  -25.641720561525087  12.501465511065653  16.382282420121733  56.51317432501008  14.531821499113589  12.899034099159314  34.135384034959564  59.19688880073923  -13.336232956224592  10.373624641948824  120.000000
9.278067415730337  0.000000  0.000000  0.000000  -26.052136957164304  12.580427191304524  17.004452750503024  56.33571885053925  14.508282270402349  12.95390824079587  34.097579238232164  59.90691043331962  -13.811963613465293  10.367717190167658  120.000000
9.318232209737827  0.000000  0.000000  0.000000  -26.42212369933595  12.637297944898858  17.568840953567552  56.176729928872994  14.489963876658239  13.00147600750407  34.08948842562416  60.43809889855897  -14.189445189992027  10.353481574890374  120.000000
9.358397003745319  0.000000  0.000000  0.000000  -26.739113280648557  12.671978260777786  18.068651296724283  56.04115458226303  14.476546903551768  13.042405835025743  34.11992598338814  60.78459552770393  -14.47089253951599  10.333430891136583  120.000000
9.398561797752809  0.000000  0.000000  0.000000  -26.99079144688239  12.68491483019586  18.496309348544713  55.93442494375192  14.466234858833152  13.07586427160552  34.19678757595438  60.93846300410674  -14.660331510020056  10.309910062968951  120.000000
9.4387265917603  0.000000  0.000000  0.000000  -27.16605128000231  12.677058872461656  18.843827914555348  55.861831116769  14.456414996903536  13.099653486087313  34.32652506236327  60.89018332278689  -14.762671416448285  10.2841331691292  120.000000
9.47889138576779  0.000000  0.000000  0.000000  -27.25587649924005  12.649797993702647  19.103057159307372  55.827991183078886  14.444189670129003  13.110412479160116  34.513684129408034  60.62931963528879  -14.782748667382434  10.2555382890951  120.000000
9.519056179775282  0.000000  0.000000  0.000000  -27.25404720619095  12.604756334781403  19.265845359348937  55.83640914111773  14.426743504209693  13.103941213432508  34.76066607491458  60.14507440190551  -14.724573758151797  10.221775774296884  120.000000
9.559220973782772  0.000000  0.000000  0.000000  -27.157611675659503  12.543768222109213  19.324035857271824  55.88923275438226  14.401556240847135  13.075410778012683  35.067592755837595  59.426747898883875  -14.590801017074943  10.179384984798881  120.000000
